<svg xmlns="http://www.w3.org/2000/svg" xmlns:xlink="http://www.w3.org/1999/xlink" viewBox="0 0 70.42 70.42"><defs><style>.cls-1{fill:#fff;stroke:#3ddeed;stroke-miterlimit:10;stroke-width:0.5px;}.cls-2{fill:url(#Blue_Sky);}.cls-3{fill:url(#Blue_Sky-2);}.cls-4{fill:url(#Blue_Sky-3);}.cls-5{fill:url(#Blue_Sky-4);}.cls-6{fill:url(#Blue_Sky-5);}.cls-7{fill:url(#Blue_Sky-6);}.cls-8{fill:url(#Blue_Sky-7);}.cls-9{fill:url(#Blue_Sky-8);}.cls-10{fill:url(#Blue_Sky-9);}.cls-11{fill:url(#Blue_Sky-10);}.cls-12{fill:url(#Blue_Sky-11);}.cls-13{fill:url(#Blue_Sky-12);}.cls-14{fill:url(#Blue_Sky-13);}.cls-15{fill:url(#Blue_Sky-14);}.cls-16{fill:url(#Blue_Sky-15);}.cls-17{fill:url(#Blue_Sky-16);}.cls-18{fill:#3ddeed;}</style><linearGradient id="Blue_Sky" x1="10.22" y1="8.45" x2="13.05" y2="13.36" gradientUnits="userSpaceOnUse"><stop offset="0" stop-color="#3ddeed"/><stop offset="1" stop-color="#3ddeed" stop-opacity="0"/></linearGradient><linearGradient id="Blue_Sky-2" x1="87.48" y1="8.45" x2="90.31" y2="13.36" gradientTransform="matrix(-1, 0, 0, 1, 116.17, 0)" xlink:href="#Blue_Sky"/><linearGradient id="Blue_Sky-3" x1="41.5" y1="8.45" x2="44.34" y2="13.36" xlink:href="#Blue_Sky"/><linearGradient id="Blue_Sky-4" x1="56.19" y1="8.45" x2="59.02" y2="13.36" gradientTransform="matrix(-1, 0, 0, 1, 116.17, 0)" xlink:href="#Blue_Sky"/><linearGradient id="Blue_Sky-5" x1="10.22" y1="16.22" x2="13.05" y2="21.13" xlink:href="#Blue_Sky"/><linearGradient id="Blue_Sky-6" x1="87.48" y1="16.22" x2="90.31" y2="21.13" gradientTransform="matrix(-1, 0, 0, 1, 116.17, 0)" xlink:href="#Blue_Sky"/><linearGradient id="Blue_Sky-7" x1="41.5" y1="16.22" x2="44.34" y2="21.13" xlink:href="#Blue_Sky"/><linearGradient id="Blue_Sky-8" x1="56.19" y1="16.22" x2="59.02" y2="21.13" gradientTransform="matrix(-1, 0, 0, 1, 116.17, 0)" xlink:href="#Blue_Sky"/><linearGradient id="Blue_Sky-9" x1="10.22" y1="23.99" x2="13.05" y2="28.9" xlink:href="#Blue_Sky"/><linearGradient id="Blue_Sky-10" x1="87.48" y1="23.99" x2="90.31" y2="28.9" gradientTransform="matrix(-1, 0, 0, 1, 116.17, 0)" xlink:href="#Blue_Sky"/><linearGradient id="Blue_Sky-11" x1="41.5" y1="23.99" x2="44.34" y2="28.9" xlink:href="#Blue_Sky"/><linearGradient id="Blue_Sky-12" x1="56.19" y1="23.99" x2="59.02" y2="28.9" gradientTransform="matrix(-1, 0, 0, 1, 116.17, 0)" xlink:href="#Blue_Sky"/><linearGradient id="Blue_Sky-13" x1="10.22" y1="31.76" x2="13.05" y2="36.67" xlink:href="#Blue_Sky"/><linearGradient id="Blue_Sky-14" x1="87.48" y1="31.76" x2="90.31" y2="36.67" gradientTransform="matrix(-1, 0, 0, 1, 116.17, 0)" xlink:href="#Blue_Sky"/><linearGradient id="Blue_Sky-15" x1="41.5" y1="31.76" x2="44.34" y2="36.67" xlink:href="#Blue_Sky"/><linearGradient id="Blue_Sky-16" x1="56.19" y1="31.76" x2="59.02" y2="36.67" gradientTransform="matrix(-1, 0, 0, 1, 116.17, 0)" xlink:href="#Blue_Sky"/></defs><title>Asset 2</title><g id="Layer_2" data-name="Layer 2"><g id="Layer_1-2" data-name="Layer 1"><rect class="cls-1" x="0.25" y="0.25" width="69.92" height="69.92"/><polyline class="cls-2" points="19.45 9.66 3.81 18.67 3.81 12.15 19.45 3.13"/><polyline class="cls-3" points="19.45 9.66 35.1 18.67 35.1 12.15 19.45 3.13"/><polyline class="cls-4" points="50.74 9.66 35.1 18.67 35.1 12.15 50.74 3.13"/><polyline class="cls-5" points="50.74 9.66 66.39 18.67 66.39 12.15 50.74 3.13"/><polyline class="cls-6" points="19.45 17.43 3.81 26.44 3.81 19.92 19.45 10.9"/><polyline class="cls-7" points="19.45 17.43 35.1 26.44 35.1 19.92 19.45 10.9"/><polyline class="cls-8" points="50.74 17.43 35.1 26.44 35.1 19.92 50.74 10.9"/><polyline class="cls-9" points="50.74 17.43 66.39 26.44 66.39 19.92 50.74 10.9"/><polyline class="cls-10" points="19.45 25.2 3.81 34.21 3.81 27.69 19.45 18.67"/><polyline class="cls-11" points="19.45 25.2 35.1 34.21 35.1 27.69 19.45 18.67"/><polyline class="cls-12" points="50.74 25.2 35.1 34.21 35.1 27.69 50.74 18.67"/><polyline class="cls-13" points="50.74 25.2 66.39 34.21 66.39 27.69 50.74 18.67"/><polyline class="cls-14" points="19.45 32.97 3.81 41.98 3.81 35.45 19.45 26.44"/><polyline class="cls-15" points="19.45 32.97 35.1 41.98 35.1 35.45 19.45 26.44"/><polyline class="cls-16" points="50.74 32.97 35.1 41.98 35.1 35.45 50.74 26.44"/><polyline class="cls-17" points="50.74 32.97 66.39 41.98 66.39 35.45 50.74 26.44"/><path class="cls-18" d="M19.53,61.93V46.47h-.09L12.35,61.93h-.41L4.88,46.47H4.81V61.93H4.32v-16H5.2l7,15.3,7-15.3H20v16Z"/><path class="cls-18" d="M25,47.6a.48.48,0,0,1-.36-.16.56.56,0,0,1-.16-.43.54.54,0,0,1,.16-.41.51.51,0,0,1,.36-.15.49.49,0,0,1,.36.15.54.54,0,0,1,.16.41.56.56,0,0,1-.17.43A.49.49,0,0,1,25,47.6Zm-.25,14.33V51.52h.5V61.93Z"/><path class="cls-18" d="M29.85,61.93V44.82h.5V61.93Z"/><path class="cls-18" d="M35,61.93V44.82h.5V61.93Z"/><path class="cls-18" d="M39.67,56.61A6.39,6.39,0,0,0,40,58.49a5.14,5.14,0,0,0,.86,1.66,4.37,4.37,0,0,0,1.46,1.19,4.57,4.57,0,0,0,2.09.45,4.65,4.65,0,0,0,2.17-.49,4.79,4.79,0,0,0,1.65-1.41l.36.32a5.37,5.37,0,0,1-6.29,1.61,4.76,4.76,0,0,1-1.64-1.16,5,5,0,0,1-1.06-1.79,6.62,6.62,0,0,1-.38-2.26,5.86,5.86,0,0,1,.39-2.17,5.56,5.56,0,0,1,1-1.73,4.79,4.79,0,0,1,1.58-1.12,5.28,5.28,0,0,1,4.08,0,4.44,4.44,0,0,1,1.51,1.13,4.76,4.76,0,0,1,.9,1.6A5.92,5.92,0,0,1,49,56.18v.43Zm8.8-.43a5.26,5.26,0,0,0-.35-1.86,4.38,4.38,0,0,0-.89-1.44A3.9,3.9,0,0,0,45.87,52a4.56,4.56,0,0,0-1.76-.33,4,4,0,0,0-2,.48,4.71,4.71,0,0,0-1.37,1.2,5.38,5.38,0,0,0-.78,1.5,4.81,4.81,0,0,0-.25,1.37Z"/><path class="cls-18" d="M56.71,45.06,56.26,45a2.42,2.42,0,0,0-.47,0,2,2,0,0,0-1,.25,2.15,2.15,0,0,0-.69.65,2.83,2.83,0,0,0-.37.89,4.9,4.9,0,0,0-.11,1v3.76H56.4V52H53.57v10h-.48V52H50.9v-.43h2.17V47.78a4.49,4.49,0,0,1,.24-1.58,2.53,2.53,0,0,1,.63-1,2.43,2.43,0,0,1,.87-.51,3.19,3.19,0,0,1,.95-.15,3.59,3.59,0,0,1,1,.14Z"/><path class="cls-18" d="M60.72,65.37a3.6,3.6,0,0,1-1,1.5,2.23,2.23,0,0,1-1.55.53,2.9,2.9,0,0,1-.48,0,3,3,0,0,1-.45-.11l.14-.43.37.09a2.45,2.45,0,0,0,.46,0,1.81,1.81,0,0,0,.83-.18,2.28,2.28,0,0,0,.6-.46,2.9,2.9,0,0,0,.42-.65q.16-.36.3-.72l1-2.72-4.12-10.7h.54l3.83,10.14,3.69-10.14h.54Z"/></g></g></svg>